<?xml version="1.0" encoding="utf-8"?>
<!-- Generator: Adobe Illustrator 19.0.0, SVG Export Plug-In . SVG Version: 6.00 Build 0)  -->
<svg version="1.1" id="Layer_1" xmlns="http://www.w3.org/2000/svg" xmlns:xlink="http://www.w3.org/1999/xlink" x="0px" y="0px"
	 viewBox="0 0 500 500" style="enable-background:new 0 0 500 500;" xml:space="preserve">
<style type="text/css">
	.st0{fill:#FFFFFF;}
	.st1{fill:#3D7BC2;}
	.st2{fill:#F03C1F;}
	.st3{fill:#231F20;}
	.st4{fill:#E2BC4B;}
	.st5{fill:#EDC54F;}
	.st6{fill:#656263;}
</style>
<g id="XMLID_1_">
	<path id="XMLID_3_" class="st0" d="M250,432.5l-48-26.1c0,0-35.4-22.6-42.5-29.6c-7-7-49.5-46.6-49.5-96.3V67.5h140h140v213.1
		c0,49.7-42.5,89.3-49.5,96.3c-7.1,7-42.4,29.6-42.4,29.6"/>
	<polyline id="XMLID_4_" class="st1" points="118.5,77.1 381.5,77.1 381.5,164 118.5,164 	"/>
	<polyline id="XMLID_5_" class="st0" points="381.5,163.9 118.5,163.9 118.5,279.7 118.5,289.9 120.7,298.2 124.2,311 129.5,322.9 
		135.6,333.6 143.2,345.2 150.1,354 157.9,362.8 165.1,369.9 176.9,378.9 188.1,386.7 202.3,396.5 250,422.6 298.2,396 307.2,390 
		315.2,384.6 323.3,378.9 328.3,375.6 334.9,369.9 340.4,364 345.4,358.5 350.6,352.6 355.8,345.7 360.6,339 366.3,330 369.1,324.5 
		372.5,317.7 375.3,310.8 378.9,298.5 381,282.8 	"/>
	<polyline id="XMLID_6_" class="st2" points="208.2,163.9 291.8,163.9 291.8,232.7 381,232.7 381,287.8 378.9,299.9 376.9,306.3 
		373.9,312.5 291.8,312.5 291.8,399.3 249,422.6 208.2,400.3 208.2,312.5 125.2,312.5 120.9,300.6 118.5,292.3 118.5,278.8 
		118.5,232.7 208.2,232.7 	"/>
	<polyline id="XMLID_7_" class="st3" points="118.5,164.1 381,164.1 381,163.8 118.5,163.8 	"/>
	<path id="XMLID_8_" class="st3" d="M250,422.6l0.1-0.2L205,397.8l-0.1,0.2l0.1-0.2c0,0-0.5-0.3-1.4-0.9
		c-3.2-2.1-11.4-7.4-19.4-12.9c-8.1-5.5-16.1-11.2-19-14.1l0,0c-6.7-6.7-46.5-44.1-46.4-91V77.4H250h131.3v201.5
		c0,46.9-39.8,84.3-46.5,91c-3.3,3.3-13.3,10.3-22.4,16.5c-4.6,3.1-8.9,6-12.1,8.1c-1.6,1.1-2.9,1.9-3.9,2.5
		c-0.9,0.6-1.4,0.9-1.4,0.9l0.1,0.2l-0.1-0.2l-45.1,24.7l0.1,0.4h0l0.1-0.4L250,422.6v-0.2h0L250,422.6l0.1,0.2l45.1-24.7l0,0
		c0,0,8.3-5.3,17.4-11.5c9.1-6.2,19.1-13.2,22.4-16.5c6.7-6.7,46.6-44.2,46.6-91.3V77H250H118.3v201.9c0,47.1,39.9,84.6,46.6,91.3
		l0,0c3.4,3.3,13.3,10.3,22.5,16.5c9.1,6.2,17.4,11.5,17.4,11.5l0,0l45.1,24.7L250,422.6v-0.2V422.6z"/>
	<path id="XMLID_9_" class="st3" d="M225.7,305.4l4.9-2.3c0,0,1.1-0.3,1.2,0.3c0.2,0.6,0.6,1.9,0.7,3.6c0.1,1.7,1.1,3.8,3,4.8
		c4.6,2.5,12.3,1.8,13.4,1.5c1.1,0.4,8.9,1,13.6-1.2c1.9-0.9,3-3,3.2-4.6c0.2-1.7,0.7-3,0.9-3.6c0.2-0.6,1.3-0.3,1.3-0.3l4.8,2.6
		l-0.5-5.1c0,0,0-1.1,0.7-1.1c0.6,0,2,0,3.7,0.4c1.6,0.4,4,0.1,5.5-1.4c3.8-3.6,5.5-11.1,5.5-12.3c0.7-0.9,3.7-8.1,3.1-13.4
		c-0.3-2-1.9-3.8-3.4-4.5c-1.6-0.7-2.7-1.6-3.1-2c-0.5-0.4,0.2-1.3,0.2-1.3l3.9-3.7l-5.4-1c0,0-1-0.4-0.9-1c0.2-0.5,0.6-1.9,1.6-3.3
		c0.9-1.4,1.3-3.7,0.4-5.6c-2.3-4.7-9-8.7-10.2-9c-0.7-1-6.7-6-11.9-7c-2.1-0.4-4.3,0.6-5.4,1.9c-1.2,1.3-2.4,2-2.9,2.4
		c-0.5,0.3-1.2-0.6-1.2-0.6l-2.4-4.9l-2.6,4.7c0,0-0.7,0.8-1.2,0.5c-0.5-0.3-1.7-1.2-2.7-2.5c-1.1-1.3-3.2-2.4-5.3-2.1
		c-5.2,0.7-11,5.8-11.7,6.7c-1.2,0.3-7.8,4.4-10.3,9c-1,1.8-0.7,4.2,0.1,5.6c0.8,1.5,1.2,2.9,1.3,3.5c0.2,0.5-0.9,0.9-0.9,0.9
		l-5.3,0.7l3.7,4c0,0,0.5,0.9,0.1,1.3c-0.5,0.4-1.6,1.2-3.2,1.8c-1.6,0.6-3.3,2.3-3.6,4.3c-0.9,5.2,2.1,12.2,2.8,13.2
		c-0.1,1.2,1.8,8.7,5.4,12.6c1.4,1.5,3.7,2,5.4,1.6c1.6-0.3,3.1-0.2,3.7-0.2c0.6,0,0.7,1.1,0.7,1.1"/>
	<path id="XMLID_10_" class="st0" d="M249.9,287.8c0,0-1.8-0.1-2.3,1.6c-0.5,1.7,0.7,3.2-0.5,4.1c-1.2,0.9-0.8,1.6-2.4,1.1
		c-1.7-0.5-2.3-1.3-2.8-2.6c-0.6-1.3-1.6-2.2-3.1-3.2c-1.4-1.1-2.6-1.9-4-2c-1.4-0.1-2.3-0.4-3.3-1.9c-1-1.5-0.7-0.4,0-2.4
		c0.7-1.9,2.6-0.9,4-1.9c1.5-1,1-3,1-3s-1.2-2.1-2.9-2.1c-1.8,0.1-2.8,1.7-4,0.8c-1.2-0.9-1.8-0.2-1.8-2c-0.1-1.7,0.6-2.5,1.6-3.4
		c1-0.9,1.6-2.2,2-4c0.7-1.7,1-3,0.7-4.4c-0.3-1.4-0.2-2.3,0.8-3.7c1.1-1.4,0.2-0.8,2.3-0.8c2.1,0.1,1.7,2.2,3.1,3.2
		c1.4,1.1,3.1,0,3.1,0s1.8-1.4,1.2-3.1c-0.6-1.7-2.5-2.1-2-3.6c0.5-1.4-0.3-1.8,1.3-2.4c1.7-0.6,2.6-0.2,3.8,0.4
		c1.2,0.7,2.6,0.9,4.4,0.7c1.7,0.1,3.2,0,4.4-0.7c1.2-0.7,2.1-0.9,3.8-0.3c1.6,0.6,0.8-0.1,1.4,1.9c0.6,2-1.5,2.3-2.1,3.9
		c-0.6,1.7,1,3,1,3s1.9,1.4,3.3,0.3c1.4-1.1,1.3-3,2.8-3c1.5,0,1.6-0.9,2.7,0.5c1.1,1.4,1,2.4,0.7,3.7c-0.3,1.3,0,2.7,0.7,4.4
		c0.4,1.7,1,3,2,3.9c1,0.9,1.6,1.7,1.5,3.5c-0.1,1.7,0.3,0.7-1.4,1.9c-1.7,1.2-2.6-0.8-4.4-0.8c-1.8,0-2.7,1.8-2.7,1.8
		s-0.5,2.2,1,3.2c1.4,1,3.3,0.3,3.7,1.7c0.4,1.4,1.3,1.2,0.3,2.6c-1,1.4-2,1.8-3.3,1.9c-1.4,0.1-2.6,0.9-4,2
		c-1.5,0.9-2.6,1.9-3.1,3.2c-0.5,1.3-1.2,2-2.9,2.5c-1.7,0.5-0.6,0.6-2.3-0.7c-1.7-1.3-0.1-2.7-0.6-4.4
		C251.9,287.9,249.9,287.8,249.9,287.8"/>
	<path id="XMLID_11_" class="st4" d="M250.4,179.3l-3.5-0.6l0.6,3.3l-3.6-0.4v5.1l3.6-1l1.2,1.7l0.7,0.7v1.7c0,0-1.5,0.1-1.9,0.8
		c0,0-15.9-1.4-28.7,8.1l-0.8,2.5c0,0,8.4-6.1,28.1-6.9l0.1,1.4c0,0-18.3,0.2-29.2,7.7l-0.4,2.7c0,0,10.2-6.3,29.3-6.6l0.9,0.1
		l1,0.7l0.3,0.9l-1.7,0.7l-2.2,0.3l-1.7-0.5l0.1,3.3l0.6,3.6l0.3,1.9v2l1.7-1.4l1.9-0.3l0.9,0.2c0,0,0,0.8,0.1,2
		c0.2,1.2-0.5,3.2-0.5,3.2l-2,1.4c0,0-2.9,0.8-4,0.2c-1.2-0.6-2.9-2.3-2.9-5c0-2.7,0.7-1.1,0.7-1.1l1.2,0.4h0.9l-0.1-1.7l-0.7-2.7
		l-1.4-1.2l-1.2,1.2c0,0-0.6-5.6-5.3-5.3c0,0-1.5,4.8,0.7,8.7l-2.1,0.1l-0.6,2l1.7,3l1.3,0.9l0.9-2l0.1-1.2c0,0,0.5-0.3,0.9,0.4
		c0.5,0.6,1.8,5.5,0.1,6.6c-1.7,1.2-2.7,1.5-4.2,0.9c-1.4-0.6-7.4-2.4-6.5-6.3l0.5-1l1.5,0.3l1,0.4l0.1-1.3c0,0-1.7-6.3-5.3-4.1
		l-0.4-3.2l-0.6-1.5l-3.2,1.4l-1,1l12.4,25.1c0,0,7.5-4.4,20.4-4.4c12.9,0,20.4,4.4,20.4,4.4l12.3-25.1l-0.9-1l-3.2-1.4l-0.6,1.5
		l-0.3,3.2c-3.7-2.2-5.3,4.1-5.3,4.1l0.1,1.3l0.9-0.4l1.6-0.3l0.5,1c0.9,3.9-5.1,5.7-6.5,6.3c-1.4,0.6-2.5,0.2-4.2-0.9
		c-1.7-1.2-0.3-6.1,0.1-6.6c0.5-0.6,1-0.4,1-0.4l0.1,1.2l0.9,2l1.3-0.9l1.6-3l-0.6-2l-2.1-0.1c2.3-3.9,0.7-8.7,0.7-8.7
		c-4.7-0.3-5.3,5.3-5.3,5.3l-1.2-1.2l-1.4,1.2l-0.7,2.7l-0.1,1.7h0.8l1.2-0.4c0,0,0.7-1.7,0.7,1.1c0,2.7-1.8,4.4-3,5
		c-1.2,0.6-4-0.2-4-0.2l-2-1.4c0,0-0.6-2-0.5-3.2c0.2-1.2,0.2-2,0.2-2l0.8-0.2l1.9,0.3l1.7,1.4v-2l0.3-1.9l0.6-3.6l0.1-3.3l-1.7,0.5
		l-2.2-0.3l-1.7-0.7l0.4-0.9l1-0.7l0.9-0.1c19.1,0.3,29.3,6.6,29.3,6.6l-0.3-2.7c-10.9-7.5-29.2-7.7-29.2-7.7l0.1-1.4
		c19.7,0.8,28.1,6.9,28.1,6.9l-0.8-2.5c-12.8-9.5-28.7-8.1-28.7-8.1c-0.3-0.7-1.9-0.8-1.9-0.8v-1.7l0.7-0.7l1.2-1.7l3.6,1v-5.1
		l-3.6,0.4l0.6-3.3"/>
	<polyline id="XMLID_12_" class="st4" points="288.3,295.9 298.7,307.9 284.9,301.1 	"/>
	<polyline id="XMLID_13_" class="st4" points="289.3,252.8 323.7,241.8 292,259.5 	"/>
	<polyline id="XMLID_14_" class="st4" points="294.1,270 330.1,273.3 294,277.1 	"/>
	<polyline id="XMLID_15_" class="st4" points="292.5,286.5 323.7,304.7 289.8,293.5 	"/>
	<polyline id="XMLID_16_" class="st4" points="293,262.4 304.8,261.5 293.9,267.1 	"/>
	<polyline id="XMLID_17_" class="st4" points="293.9,279.6 305.2,285 292.9,284.4 	"/>
	<polyline id="XMLID_18_" class="st4" points="209.9,294.5 175.5,305.4 207.2,287.8 	"/>
	<polyline id="XMLID_19_" class="st4" points="205.1,277.2 169.1,273.9 205.2,270 	"/>
	<polyline id="XMLID_20_" class="st4" points="206.7,260.8 175.5,242.6 209.4,253.9 	"/>
	<polyline id="XMLID_21_" class="st4" points="206.2,284.7 194.4,285.7 205.3,280.1 	"/>
	<polyline id="XMLID_22_" class="st4" points="205.3,267.6 194,262.2 206.3,262.8 	"/>
	<polyline id="XMLID_23_" class="st4" points="269,313.5 280.1,347.9 262.4,316.2 	"/>
	<polyline id="XMLID_24_" class="st4" points="251.9,318.3 248.6,354.3 244.7,318.2 	"/>
	<polyline id="XMLID_25_" class="st4" points="235.4,316.6 217.2,347.8 228.4,313.9 	"/>
	<polyline id="XMLID_26_" class="st4" points="259.4,317.1 260.4,329 254.8,318.1 	"/>
	<polyline id="XMLID_27_" class="st4" points="242.2,318 236.7,329.3 237.4,317 	"/>
	<polyline id="XMLID_28_" class="st4" points="219.7,307.1 207.4,314.2 215.7,303.1 	"/>
	<polyline id="XMLID_29_" class="st4" points="213.7,300.8 199.5,306 211.1,296.6 	"/>
	<polyline id="XMLID_30_" class="st4" points="226.2,312.5 214.9,322.5 221.7,308.7 	"/>
	<polyline id="XMLID_31_" class="st4" points="283.3,303 290.4,315.3 279.3,307 	"/>
	<polyline id="XMLID_32_" class="st4" points="277,309.1 282.2,323.3 272.8,311.7 	"/>
	<polyline id="XMLID_33_" class="st4" points="279.4,239.5 291.6,232.4 283.3,243.5 	"/>
	<polyline id="XMLID_34_" class="st4" points="285.3,245.8 299.6,240.6 287.9,250 	"/>
	<polyline id="XMLID_35_" class="st4" points="272.9,234.1 284.1,224.1 277.4,237.9 	"/>
	<polyline id="XMLID_36_" class="st4" points="215.3,243.9 208.2,231.7 219.4,240 	"/>
	<polyline id="XMLID_37_" class="st4" points="221.6,237.9 216.5,223.8 225.8,235.4 	"/>
	<polyline id="XMLID_38_" class="st4" points="210.5,251.3 199.9,239.2 213.7,246 	"/>
	<polyline id="XMLID_39_" class="st5" points="249.9,262 246.5,268.8 239.9,269.7 244.8,274.4 243.3,281.9 249.9,277.6 256.5,281.9 
		255,274.4 259.9,269.7 253.3,268.8 	"/>
	<path id="XMLID_40_" class="st2" d="M231.7,229c-0.4-1.1,0.7-2.5,2.4-3.3c1.8-0.7,3.6-0.4,4,0.6c0.4,1.1-0.7,2.5-2.4,3.2
		C233.9,230.4,232.2,230.1,231.7,229"/>
	<path id="XMLID_41_" class="st2" d="M246.9,222.2c0-1.1,1.6-2.1,3.5-2.1c1.9,0,3.5,0.9,3.5,2.1c0,1.1-1.6,2.1-3.5,2.1
		C248.5,224.3,246.9,223.4,246.9,222.2"/>
	<path id="XMLID_42_" class="st2" d="M259.4,225.7c0.5-1,2.3-1.2,4.1-0.3c1.7,0.8,2.7,2.4,2.2,3.4c-0.5,1-2.3,1.2-4,0.3
		C259.9,228.3,258.9,226.8,259.4,225.7"/>
	<path id="XMLID_43_" class="st2" d="M233.1,250.7c0,0,3,1.2,3.8,0.9c0.9-0.2,1.2-1.6,1.2-1.6l0.1-1.4c0,0,0.6-0.9,1.2-1.3
		c0.6-0.4,1.7-0.7,2.4-0.8c0.7-0.1,1,0,1.6-0.5c0.6-0.5,1.9-4.3-0.7-6.2c-2.6-1.9-4.6-3.1-6.5-1.9c-1.9,1.2-3.9,3.7-4.4,4.2
		c-0.5,0.5-1.5,3.4-2.1,3.4c-0.1,0.6-4,1.3-4.5,1.6c-0.6,0.4-3.4,1.8-5,3.3c-1.6,1.6-0.9,3.8,0.4,6.8c1.2,3,5.2,2.6,5.8,2.1
		c0.6-0.5,0.5-0.7,0.8-1.4c0.3-0.7,0.9-1.6,1.3-2.1c0.5-0.5,1.6-0.9,1.6-0.9l1.4,0.2c0,0,1.3,0,1.8-0.8
		C233.5,253.7,233.1,250.7,233.1,250.7"/>
	<path id="XMLID_44_" class="st2" d="M266.5,251.2c0,0-0.2,3.2,0.3,3.9c0.5,0.7,1.9,0.6,1.9,0.6l1.4-0.3c0,0,1.1,0.3,1.6,0.7
		c0.5,0.4,1.2,1.3,1.6,2c0.3,0.6,0.3,0.9,1,1.3c0.6,0.4,4.7,0.5,5.7-2.6c1-3.1,1.5-5.3-0.2-6.8c-1.7-1.5-4.8-2.6-5.4-2.9
		c-0.6-0.3-3.8-0.4-4-1c-0.6,0.1-2.5-3.3-3-3.8c-0.5-0.4-2.8-2.7-4.8-3.8c-2-1-3.9,0.4-6.4,2.5c-2.5,2.1-0.8,5.8-0.2,6.2
		c0.7,0.4,0.9,0.3,1.6,0.4c0.7,0,1.9,0.3,2.5,0.6c0.7,0.3,1.3,1.2,1.3,1.2l0.2,1.4c0,0,0.5,1.2,1.3,1.4
		C263.7,252.5,266.5,251.2,266.5,251.2"/>
	<path id="XMLID_45_" class="st2" d="M222.4,282c0,0,2-2.5,2.1-3.4c0-0.9-1.1-1.6-1.1-1.6l-1.3-0.5c0,0-0.7-0.9-0.9-1.5
		c-0.1-0.7-0.2-1.8,0-2.5c0.1-0.7,0.3-0.9,0-1.6c-0.3-0.7-3.5-3.1-6.1-1.2c-2.6,1.9-4.3,3.4-3.8,5.6c0.5,2.2,2.3,4.9,2.6,5.5
		c0.3,0.6,2.8,2.5,2.6,3.1c0.5,0.3,0,4.2,0.1,4.8c0.2,0.7,0.6,3.8,1.6,5.8c1,2,3.4,2,6.6,1.7c3.2-0.3,4-4.2,3.8-4.9
		c-0.3-0.7-0.5-0.7-1.1-1.2c-0.6-0.5-1.3-1.3-1.6-1.9c-0.3-0.6-0.4-1.7-0.4-1.7l0.6-1.3c0,0,0.4-1.3-0.2-1.9
		C225.3,282.5,222.4,282,222.4,282"/>
	<path id="XMLID_46_" class="st2" d="M249.3,301.6c0,0-1.7-2.7-2.5-3c-0.8-0.3-1.9,0.5-1.9,0.5l-1,1.1c0,0-1,0.4-1.7,0.3
		c-0.7,0-1.8-0.4-2.4-0.7c-0.6-0.3-0.8-0.5-1.5-0.5c-0.7,0.1-4,2.4-3,5.4c0.9,3.1,1.9,5.2,4.1,5.4c2.2,0.2,5.3-0.7,6-0.8
		c0.7-0.1,3.3-1.9,3.7-1.5c0.5-0.4,4,1.3,4.7,1.3c0.6,0.1,3.8,0.6,6,0.3c2.2-0.3,2.9-2.6,3.7-5.7c0.7-3.2-2.8-5.2-3.5-5.1
		c-0.8,0-0.9,0.3-1.5,0.6c-0.6,0.4-1.6,0.8-2.3,0.9c-0.7,0.1-1.7-0.2-1.7-0.2l-1-1c0,0-1.1-0.7-1.9-0.4
		C250.7,299,249.3,301.6,249.3,301.6"/>
	<path id="XMLID_47_" class="st2" d="M276.5,282.9c0,0-3.1,0.8-3.6,1.5c-0.6,0.7-0.1,1.9-0.1,1.9l0.7,1.2c0,0,0.1,1.1-0.2,1.8
		c-0.3,0.6-0.9,1.5-1.4,2c-0.5,0.5-0.8,0.6-1,1.3c-0.2,0.7,1,4.6,4.2,4.6c3.2,0,5.6-0.2,6.4-2.3c0.8-2.1,1-5.3,1.1-5.9
		c0.1-0.6-0.8-3.7-0.3-4c-0.2-0.6,2.5-3.3,2.7-4c0.2-0.6,1.8-3.5,2.1-5.7c0.3-2.2-1.5-3.6-4.3-5.3c-2.8-1.7-5.7,1-5.9,1.7
		c-0.2,0.7,0,0.9,0.2,1.6c0.2,0.7,0.2,1.8,0.1,2.5c-0.1,0.7-0.7,1.6-0.7,1.6l-1.3,0.7c0,0-1,0.9-0.9,1.7
		C274.5,280.6,276.5,282.9,276.5,282.9"/>
	<polygon id="XMLID_48_" class="st3" points="291.6,163.9 291.6,232.9 381,232.9 381,232.6 291.9,232.6 291.9,163.9 291.6,163.9 	
		"/>
	<polygon id="XMLID_49_" class="st3" points="373.9,312.4 291.6,312.4 291.6,399.3 291.9,399.3 291.9,312.7 373.9,312.7 
		373.9,312.4 	"/>
	<polygon id="XMLID_50_" class="st3" points="208.4,400.2 208.4,312.3 126.1,312.3 126.1,312.6 208.1,312.6 208.1,400.2 
		208.4,400.2 	"/>
	<polygon id="XMLID_51_" class="st3" points="118.5,232.9 208.4,232.9 208.4,164 208.1,164 208.1,232.6 118.5,232.6 118.5,232.9 	
		"/>
	<path id="XMLID_52_" class="st4" d="M181.9,84.2l-4.9,5l-0.3,46.3c0,0,3.9,4.7,17.2,5.7c13.3,1,36.9-3.1,36.9-3.1l11.8,1l3.3,1.4
		l-0.3,3l0.4,3.8l2.2,2.8l6-0.2l2.1-2.6l-0.1-4.3l-0.2-2.1l5-1.9l4-0.5l12.1,0.2l11.6,2.3l14.9,0.7c0,0,9.2-0.4,13.2-1.6
		c4-1.1,6.8-2.8,6.8-2.8l1.6-1.9l-0.2-44.9l-5.2-6.2l-0.5,10.7l0.7,33.1l-0.2,4.2l-5.5,2.3l-23.9,0.2l-17.9-1.2l-9.5,1l-6.9,2.8
		l-5.2,3.6l-9-6.4l-13.5-1.7l-27.9,2.4l-11.4-0.4l-7.3-2.9"/>
	<path id="XMLID_53_" class="st3" d="M250.5,142.6c-0.3,0-0.6-0.1-0.9-0.3c-2.6-2-1.2-2.9-6.9-5.8c-3.7-1.8-9.7-2.4-14.2-2.4
		c-3.8,0-8.1,0.3-12.8,0.9c-6.2,0.8-11.9,1.1-16.8,1.1c-12.4,0-16.2-2.5-16.5-2.7l-1.1-0.5c-0.5-0.2-0.8-0.8-0.8-1.3l0.2-47.2
		c0-0.6,0.3-1.1,0.9-1.3c0.5-0.2,1.1-0.2,1.6,0.2c1.7,1.5,2.8,2.4,3,2.8c0.7,0.5,6.2,3.4,15.2,3.4c4.2,0,8.6-0.6,13.2-1.8
		c3.4-0.9,6.9-1.3,10.5-1.3c14.9,0,25.8,7.6,26.3,8c0.4,0.3,0.6,0.7,0.6,1.2v45.7c0,0.6-0.3,1.1-0.8,1.3
		C250.9,142.5,250.7,142.6,250.5,142.6"/>
	<path id="XMLID_54_" class="st3" d="M251.3,142.6c-0.2,0-0.4-0.1-0.7-0.2c-0.5-0.3-0.8-0.8-0.8-1.3V95.4c0-0.5,0.2-0.9,0.6-1.2
		c0.5-0.3,11.4-8,26.3-8c3.6,0,7.1,0.5,10.5,1.3c4.6,1.2,9,1.8,13.2,1.8c9.1,0,14.5-2.9,15.4-3.6c0.1-0.2,1.1-1.1,2.8-2.6
		c0.4-0.4,1.1-0.5,1.6-0.2c0.5,0.2,0.9,0.8,0.9,1.3l0.2,47.2c0,0.6-0.3,1.1-0.8,1.3l-1.3,0.7c-0.2,0.2-3.9,2.6-16.3,2.6
		c-4.9,0-10.5-0.4-16.7-1.1c-4.7-0.6-9-0.9-12.8-0.9c-4.5,0-12,1.2-14.7,2.6c-5.1,2.9-3.7,3.5-6.4,5.6
		C251.9,142.5,251.6,142.6,251.3,142.6"/>
	<path id="XMLID_55_" class="st3" d="M149,139.8L149,139.8c-1.3,0-2.1-1-2.3-2.1c-0.2-0.7-1-3-2.4-3.8c-2-1.1-2.3-3.1-2.1-4.3
		c0-0.2-0.1-0.4,0-0.6c0.1-0.9,0.8-1.8,2.1-2.8c1.3-0.9,2.3-3.3,2.6-4c0.5-1.4,2.6-2.6,4.4-1c0.4,0.3,0.7,0.7,1,1
		c0.8,0.8,1,1.1,2,1.1h4.8h10h0c0.4,0,0.8,0.2,1,0.4c0.3,0.3,0.4,0.6,0.4,1l-0.1,10.5c0,0.8-0.6,1.6-1.5,1.5c0,0-13.1-0.1-14.7,0
		c-0.9,0-1.4,0.4-2.7,1.7l-0.4,0.3C150.4,139.5,149.7,139.8,149,139.8"/>
	<path id="XMLID_56_" class="st3" d="M149,116.7L149,116.7c-1.3,0-2.1-1-2.3-2.1c-0.2-0.7-1-3-2.4-3.8c-1.9-1.1-2.2-3.1-2.1-4.3
		c0-0.2-0.1-0.4,0-0.6c0.1-0.9,0.8-1.8,2.1-2.8c1.3-0.9,2.3-3.3,2.6-4c0.5-1.4,2.6-2.5,4.4-1c0.4,0.4,0.7,0.7,1,1
		c0.8,0.8,1,1.1,2,1.1l4.8,0l10,0c0.4,0,0.8,0.2,1,0.4c0.3,0.3,0.4,0.7,0.4,1l-0.1,10.4c0,0.8-0.7,1.5-1.5,1.5h0
		c0,0-13.2-0.1-14.7,0c-0.9,0-1.4,0.5-2.8,1.8l-0.3,0.3C150.4,116.4,149.7,116.7,149,116.7"/>
	<path id="XMLID_57_" class="st3" d="M352.8,139.8c-0.7,0-1.4-0.3-2.1-1l-0.4-0.3c-1.3-1.3-1.8-1.7-2.7-1.7c-1.7-0.1-14.7,0-14.7,0
		h0c-0.8,0-1.5-0.6-1.5-1.5l-0.1-10.5c0-0.4,0.2-0.8,0.4-1c0.3-0.3,0.7-0.4,1-0.4h0h10h4.8c1,0,1.3-0.3,2-1.1c0.3-0.3,0.6-0.6,1-1
		c1.8-1.6,3.9-0.5,4.4,1c0.3,0.8,1.3,3.1,2.6,4c1.3,0.9,2,1.8,2.1,2.8c0,0.2,0,0.4,0,0.6c0.2,1.2-0.1,3.2-2.1,4.3
		c-1.4,0.8-2.2,3.1-2.4,3.8C354.9,138.7,354.1,139.8,352.8,139.8"/>
	<path id="XMLID_58_" class="st3" d="M352.8,116.7c-0.7,0-1.4-0.3-2.1-1l-0.3-0.3c-1.4-1.3-1.9-1.7-2.8-1.8c-1.6-0.1-14.7,0-14.7,0
		h0c-0.8,0-1.5-0.6-1.5-1.5l-0.1-10.4c0-0.4,0.2-0.8,0.4-1c0.3-0.3,0.7-0.4,1.1-0.4l10,0l4.8,0c1,0,1.3-0.3,2.1-1.1
		c0.3-0.3,0.6-0.6,1-1c1.8-1.6,3.9-0.5,4.4,0.9c0.3,0.8,1.3,3.1,2.6,4c1.3,0.9,2,1.9,2.1,2.8c0,0.2,0,0.3,0,0.6
		c0.1,1.2-0.2,3.2-2.1,4.3c-1.4,0.8-2.2,3-2.4,3.8C354.9,115.6,354.1,116.7,352.8,116.7"/>
	<path id="XMLID_59_" class="st3" d="M254.5,157.5c-1.7,0-2.9-0.2-2.9-0.2l-1.6,0c0,0-1.2,0.2-2.8,0.2c-8,0-9.5-3.7-9.7-5.9
		c-0.1-0.9,0.1-1.8,0.4-2.5l-68.9,1.2c-0.5,0.1-0.8-0.2-1.1-0.4c-0.3-0.3-0.4-0.7-0.4-1.1l0.3-53.5c0.1-0.6,0.5-1.1,1-1.3
		c0,0,0.8-0.4,2.2-2.1c2.1-2.5,3.7-3.5,3.9-3.5c0.5-0.1,1-0.1,1.4,0.2c0.4,0.3,0.6,0.8,0.6,1.2l-0.1,1.3l-0.1,43.9
		c1,1,5.5,5.8,20,5.8c5.5,0,13.3-0.5,20.4-1.6c6.1-1,11.5-1.4,16.1-1.4c11.3,0,13.3,1.8,13.8,2.5c0.3,0.5,0.4,1.1,0.2,1.6l-0.5,1.2
		c-0.2,0.4-1.1,1.8,0.1,4.3c0.7,1.5,2.2,1.9,3.4,2l0.2,0h1.1h0.1c1.3-0.1,2.8-0.5,3.5-2c1.2-2.5,0.3-3.9,0.3-4l-0.7-1.5
		c-0.2-0.5-0.1-1.2,0.2-1.6c0.5-0.7,2.4-2.6,13.7-2.6c4.5,0,9.9,0.5,16.1,1.4c7,1,13.4,1.6,18.9,1.6c14.5,0,20.2-4.7,21.2-5.7
		l-0.2-45.1c0-0.5,0.2-1,0.6-1.2c0.4-0.3,0.9-0.4,1.3-0.2c0.1,0,2.2,1.1,4.3,3.5c1.5,1.7,2.3,2.1,2.3,2.1c0.5,0.2,0.9,0.7,1,1.3
		l0.1,1.3l0.2,52.2c0,0.4-0.2,0.8-0.4,1.1c-0.3,0.3-0.7,0.5-1.1,0.4l-68.8-1.2c0.3,0.7,0.4,1.5,0.4,2.5
		C264.1,153.8,262.6,157.5,254.5,157.5"/>
	<path id="XMLID_60_" class="st0" d="M244.1,134.7c0.5,0.2,1.5,0.8,6.1,3.3v-42c-3.6-1.6-13.2-7-25.1-7c-3.3,0-6.6,0.4-9.7,1.2
		c-4.8,1.3-9.5,1.9-14,1.9c-10.6,0-17.8-3.7-18.5-4.7l-0.1-0.1l-0.2,43.9l0.5,0.2c0.2,0.1,4.4,2.3,15.8,2.3c4.8,0,10.3-0.4,16.4-1.1
		C228.9,131.2,238.9,131.8,244.1,134.7"/>
	<path id="XMLID_61_" class="st4" d="M144,129.5c0,0.2,0,0.4,0,0.5c0,0.2-0.2,1.1,0.7,1.6c2.4,1.3,3.6,4.2,4,5.5l0.1-0.1
		c1.6-1.5,2.8-2.6,5.1-2.7c1.3-0.1,9.9,0,13.8,0l0.1-3.8l0-4.4l-8.4,0l-5.3,0c-2.5,0-3.6-1.2-4.6-2.2c-0.2-0.2-0.4-0.4-0.7-0.7
		c-0.5,1.2-1.7,4-3.8,5.5C144.4,129,144.1,129.3,144,129.5"/>
	<path id="XMLID_62_" class="st4" d="M144,106.3c0,0.2,0,0.4,0,0.5c0,0.2-0.1,1.1,0.7,1.6c2.4,1.4,3.6,4.2,4,5.6l0,0
		c1.6-1.5,2.9-2.7,5.1-2.8c1.5,0,10.3,0,14.2,0l0.1-3.8v-4.4l-8.8,0l-5.3,0c-2.5,0-3.6-1.2-4.6-2.2c-0.2-0.2-0.4-0.4-0.7-0.7
		c-0.5,1.2-1.7,4-3.8,5.5C144.4,105.9,144.1,106.2,144,106.3"/>
	<path id="XMLID_63_" class="st6" d="M240.1,106c-6.2-2.8-14-6.3-25.8-3.3c-7.3,1.9-17.1,3.1-22.5,0.8l1.2-2.7
		c3.9,1.7,11.9,1.3,20.5-1c12.8-3.4,21.4,0.6,27.7,3.4"/>
	<path id="XMLID_64_" class="st6" d="M240.1,118.4c-6.2-2.8-14-6.4-25.8-3.3c-7.3,1.9-17.1,3.1-22.5,0.8l1.2-2.7
		c3.9,1.7,11.9,1.3,20.5-1c12.8-3.4,21.4,0.6,27.7,3.4"/>
	<path id="XMLID_65_" class="st6" d="M240.1,128.7c-6.2-2.8-14-6.4-25.8-3.3c-7.3,1.9-17.1,3.1-22.5,0.8l1.2-2.7
		c3.9,1.7,11.9,1.3,20.5-1c12.8-3.4,21.4,0.6,27.7,3.4"/>
	<path id="XMLID_66_" class="st0" d="M251.7,96.1v42c4.4-2.5,5.5-3.2,6-3.3c5.4-2.9,15.3-3.5,28.8-1.9c6.1,0.7,11.6,1.1,16.4,1.1
		c11.4,0,15.5-2.9,15.5-2.9l0.7-0.3l-0.2-44l-0.1,0.1c-0.6,0.9-7.7,5.3-18.3,5.3c-4.4,0-9.2-0.6-14-1.9c-3.1-0.8-6.4-1.2-9.7-1.2
		C263.5,89.1,251.7,96.1,251.7,96.1"/>
	<path id="XMLID_67_" class="st4" d="M342.9,134.1c2.5,0,4.5,0,5.1,0.1c2.2,0.1,3.5,1.3,5,2.7l0.1,0.1c0.5-1.4,1.7-4.2,4-5.6
		c0.9-0.5,0.7-1.6,0.7-1.6c0-0.2,0-0.4,0-0.5c-0.1-0.2-0.4-0.4-0.9-0.8c-2.1-1.5-3.4-4.4-3.8-5.5c-0.3,0.3-0.5,0.5-0.7,0.7
		c-1,1-2.1,2.2-4.6,2.2l-5.3,0l-8.4,0l0.1,8.2C336.4,134.2,339.5,134.1,342.9,134.1"/>
	<path id="XMLID_68_" class="st4" d="M342.9,111c2.5,0,4.5,0,5.1,0c2.3,0.1,3.5,1.3,5.1,2.8l0,0c0.5-1.4,1.7-4.2,4-5.6
		c0.8-0.5,0.7-1.4,0.7-1.6c0-0.2,0-0.3,0-0.5c-0.1-0.2-0.4-0.4-0.9-0.8c-2.1-1.5-3.4-4.3-3.8-5.5c-0.3,0.3-0.5,0.5-0.7,0.7
		c-1,1-2.1,2.2-4.6,2.2l-5.3,0l-8.7,0l0.1,8.2C336.1,111,339.5,111,342.9,111"/>
	<path id="XMLID_69_" class="st0" d="M251.8,154.4c0.2,0,1.3,0.2,2.7,0.2c2.4,0,6.5-0.4,6.7-3.1c0.1-1.5-1.2-2.6-1.2-2.6
		c-0.5-0.4-0.7-1.1-0.5-1.7c0.2-0.6,0.8-1,1.4-1l0,0l70.9,1.2l-0.2-50.9c-0.6-0.4-2.2-1.1-3.3-2.5c-0.6-0.7-1.4-1.3-2.1-1.7
		l0.1,43.3c0,0.3-0.1,0.5-0.2,0.8c-0.4,0.7-4.2,6.4-22.7,6.4c-5.6,0-12.1-0.5-19.3-1.6c-6-0.9-11.2-1.4-15.6-1.4
		c-7.1,0-10.2,1.2-11.3,1.9l0,0c0.5,0.6,1.3,3-0.1,6c-1,2.2-3.2,3.4-6,3.4c-3.1,0-5.3-1.2-6.3-3.4c-1.3-2.8-0.8-5-0.1-6.1
		c-1.1-0.7-4.2-1.9-11.3-1.9c-4.4,0-9.6,0.5-15.6,1.4c-7.2,1.1-13.7,1.6-19.3,1.6c-18.5,0-22.9-5.7-23.3-6.4
		c-0.1-0.2-0.2-0.5-0.2-0.8l0.1-43.3c-0.7,0.4-1,1-1.6,1.7c-1.1,1.3-2.8,2-3.4,2.5l0,0.5l-0.2,50.4l71.1-1.2l0,0
		c0.6,0,1.2,0.4,1.4,1c0.2,0.6,0,1.3-0.5,1.7c0,0-1.3,1.1-1.2,2.6c0.2,2.7,4.3,3.1,6.7,3.1c1.4,0,2.5-0.1,2.5-0.2"/>
	<path id="XMLID_70_" class="st6" d="M261.7,106l-1.2-2.7c6.3-2.9,15-6.8,27.7-3.4c8.6,2.3,16.7,2.6,20.5,1l1.2,2.7
		c-5.4,2.3-15.1,1.1-22.5-0.8C275.7,99.6,267.9,103.2,261.7,106"/>
	<path id="XMLID_71_" class="st6" d="M261.7,118.4l-1.2-2.7c6.3-2.9,15-6.8,27.7-3.4c8.6,2.2,16.7,2.6,20.5,1l1.2,2.7
		c-5.4,2.3-15.1,1.1-22.5-0.8C275.7,112.1,267.9,115.6,261.7,118.4"/>
	<path id="XMLID_72_" class="st6" d="M261.7,128.7l-1.2-2.7c6.3-2.9,15-6.8,27.7-3.4c8.6,2.3,16.7,2.6,20.5,1l1.2,2.7
		c-5.4,2.3-15.1,1.1-22.5-0.8C275.7,122.4,267.9,125.9,261.7,128.7"/>
	<line id="XMLID_73_" class="st0" x1="181.9" y1="84.2" x2="176.1" y2="90.5"/>
	<polyline id="XMLID_74_" class="st3" points="181.8,84.1 176.1,90.5 176.2,90.6 181.9,84.2 	"/>
	<line id="XMLID_75_" class="st0" x1="319.7" y1="84.2" x2="325.4" y2="90.5"/>
	<polyline id="XMLID_76_" class="st3" points="319.6,84.2 325.4,90.6 325.5,90.5 319.8,84.1 	"/>
</g>
</svg>
